<svg width="34" height="41" viewBox="0 0 34 41" fill="none" xmlns="http://www.w3.org/2000/svg">
<path d="M26.688 30H22.976C21.3973 30 20.1707 29.5627 19.296 28.688C18.4427 27.8133 18.016 26.5973 18.016 25.04V14.384C18.016 12.8053 18.4427 11.5893 19.296 10.736C20.1707 9.86133 21.3973 9.424 22.976 9.424H26.688C28.2453 9.424 29.4613 9.86133 30.336 10.736C31.2107 11.5893 31.648 12.8053 31.648 14.384V15.92C31.648 16.304 31.456 16.496 31.072 16.496H29.056C28.6933 16.496 28.512 16.304 28.512 15.92V14.512C28.512 12.9333 27.744 12.144 26.208 12.144H23.424C21.888 12.144 21.12 12.9333 21.12 14.512V24.912C21.12 26.4907 21.888 27.28 23.424 27.28H26.208C27.744 27.28 28.512 26.4907 28.512 24.912V23.504C28.512 23.12 28.6933 22.928 29.056 22.928H31.072C31.456 22.928 31.648 23.12 31.648 23.504V25.04C31.648 26.5973 31.2107 27.8133 30.336 28.688C29.4613 29.5627 28.2453 30 26.688 30Z" fill="#0066FF"/>
<path d="M3.456 30H1.152C0.853333 30 0.746667 29.8187 0.832 29.456L6.4 9.968C6.50667 9.60533 6.76267 9.424 7.168 9.424H10.368C10.7947 9.424 11.0507 9.60533 11.136 9.968L16.704 29.456C16.7893 29.8187 16.672 30 16.352 30H14.08C13.888 30 13.7493 29.968 13.664 29.904C13.6 29.8187 13.5467 29.6693 13.504 29.456L12.288 25.296H5.248L4.032 29.456C3.94667 29.8187 3.75467 30 3.456 30ZM8.704 12.496L5.888 22.736H11.68L8.832 12.496H8.704Z" fill="#FF9900"/>
</svg>
