<svg width="80" height="80" viewBox="0 0 80 80" fill="none" xmlns="http://www.w3.org/2000/svg">
<path d="M41.7188 27.5V10.625H18.125V69.375H61.875V30.7812H45C44.1298 30.7812 43.2952 30.4355 42.6798 29.8202C42.0645 29.2048 41.7188 28.3702 41.7188 27.5Z" fill="black" fill-opacity="0.15"/>
<path d="M66.7656 22.5469L49.9531 5.73438C49.4844 5.26563 48.8516 5 48.1875 5H15C13.6172 5 12.5 6.11719 12.5 7.5V72.5C12.5 73.8828 13.6172 75 15 75H65C66.3828 75 67.5 73.8828 67.5 72.5V24.3203C67.5 23.6562 67.2344 23.0156 66.7656 22.5469Z" fill="#00FFB3" fill-opacity="0.75"/>
<path d="M47.0312 10.7656L61.7344 25.4688H47.0312V10.7656Z" fill="#00FFB3" fill-opacity="0.75"/>
<path d="M61.875 69.375H18.125V10.625H41.7188V27.5C41.7188 28.3702 42.0645 29.2048 42.6798 29.8202C43.2952 30.4355 44.1298 30.7812 45 30.7812H61.875V69.375Z" fill="#00FFB3" fill-opacity="0.75"/>
<path d="M47.93 49.8875C47.0463 49.8875 46.3313 50.6025 46.3313 51.485V57.1475C46.3313 57.5715 46.4997 57.9782 46.7995 58.278C47.0993 58.5778 47.506 58.7462 47.93 58.7462C48.354 58.7462 48.7607 58.5778 49.0605 58.278C49.3603 57.9782 49.5288 57.5715 49.5288 57.1475V51.485C49.5288 50.6025 48.8138 49.8875 47.93 49.8875ZM32.07 49.8875C31.1863 49.8875 30.4713 50.6025 30.4713 51.485V57.1475C30.4713 57.5715 30.6397 57.9782 30.9395 58.278C31.2393 58.5778 31.646 58.7462 32.07 58.7462C32.494 58.7462 32.9007 58.5778 33.2005 58.278C33.5003 57.9782 33.6688 57.5715 33.6688 57.1475V51.485C33.6689 51.2751 33.6277 51.0672 33.5474 50.8732C33.4671 50.6792 33.3493 50.503 33.2008 50.3546C33.0523 50.2062 32.876 50.0886 32.6819 50.0084C32.4879 49.9283 32.2799 49.8872 32.07 49.8875ZM43.1813 45.1262L44.1413 43.3912C44.1693 43.3419 44.1873 43.2874 44.1941 43.231C44.2009 43.1746 44.1965 43.1174 44.181 43.0627C44.1655 43.0081 44.1394 42.957 44.104 42.9126C44.0686 42.8681 44.0248 42.8311 43.975 42.8037C43.9254 42.7758 43.8707 42.7579 43.8141 42.7513C43.7575 42.7446 43.7001 42.7492 43.6453 42.765C43.5905 42.7807 43.5394 42.8071 43.495 42.8427C43.4505 42.8783 43.4135 42.9225 43.3863 42.9725L42.4 44.7475C41.665 44.4537 40.855 44.2875 40 44.2875C39.145 44.2875 38.335 44.4525 37.6 44.7462L36.6138 42.9737C36.5865 42.9237 36.5495 42.8796 36.5051 42.844C36.4606 42.8083 36.4095 42.7819 36.3547 42.7662C36.2999 42.7505 36.2425 42.7458 36.1859 42.7525C36.1294 42.7592 36.0746 42.777 36.025 42.805C35.9755 42.8326 35.9319 42.8697 35.8967 42.9142C35.8615 42.9587 35.8355 43.0097 35.82 43.0643C35.8046 43.1188 35.8 43.1759 35.8067 43.2322C35.8133 43.2886 35.831 43.343 35.8588 43.3925L36.8188 45.1275C35.09 46.1125 33.935 47.8737 33.935 49.8875C33.935 49.9012 33.935 49.9137 33.9375 49.93C33.935 49.9375 33.935 49.9462 33.935 49.9537V49.955H46.0638V49.8875C46.065 47.8737 44.91 46.1137 43.1813 45.1262Z" fill="black"/>
<path d="M37.2 47.5863C37.1432 47.5858 37.0869 47.5742 37.0345 47.5521C36.9821 47.5299 36.9346 47.4977 36.8947 47.4572C36.814 47.3754 36.7692 47.2649 36.77 47.15C36.7709 47.0351 36.8173 46.9253 36.8991 46.8447C36.9809 46.764 37.0914 46.7192 37.2063 46.72C37.3212 46.7208 37.431 46.7673 37.5116 46.8491C37.5923 46.9309 37.6371 47.0414 37.6363 47.1563C37.6355 47.2711 37.589 47.381 37.5072 47.4616C37.4254 47.5422 37.3149 47.5871 37.2 47.5863ZM42.8 47.5863C42.691 47.578 42.5891 47.5288 42.5148 47.4486C42.4405 47.3684 42.3992 47.2631 42.3992 47.1538C42.3992 47.0444 42.4405 46.9391 42.5148 46.8589C42.5891 46.7787 42.691 46.7295 42.8 46.7213C42.9147 46.7213 43.0247 46.7668 43.1059 46.8479C43.187 46.929 43.2325 47.039 43.2325 47.1538C43.2325 47.2685 43.187 47.3785 43.1059 47.4596C43.0247 47.5407 42.9147 47.5863 42.8 47.5863Z" fill="black"/>
<path d="M33.935 59.15C33.935 59.9575 34.5912 60.6138 35.4025 60.6138H36.135V63.615C36.135 64.039 36.3034 64.4457 36.6033 64.7455C36.9031 65.0453 37.3097 65.2138 37.7337 65.2138C38.1578 65.2138 38.5644 65.0453 38.8642 64.7455C39.1641 64.4457 39.3325 64.039 39.3325 63.615V60.6138H40.665V63.615C40.665 64.4987 41.38 65.2125 42.2612 65.2125C43.1475 65.2125 43.8625 64.4987 43.8625 63.615V60.6138H44.595C45.405 60.6138 46.0625 59.9588 46.0625 59.15V50.285H33.935V59.15Z" fill="black"/>
</svg>
