<svg width="35" height="35" viewBox="0 0 35 35" fill="none" xmlns="http://www.w3.org/2000/svg">
<path d="M8.75 6.5625C7.58968 6.5625 6.47688 7.02344 5.65641 7.84391C4.83594 8.66438 4.375 9.77718 4.375 10.9375V11.3772L17.5 18.445L30.625 11.3794V10.9375C30.625 9.77718 30.1641 8.66438 29.3436 7.84391C28.5231 7.02344 27.4103 6.5625 26.25 6.5625H8.75ZM30.625 13.8622L18.0184 20.65C17.8591 20.7358 17.681 20.7807 17.5 20.7807C17.319 20.7807 17.1409 20.7358 16.9816 20.65L4.375 13.8622V24.0625C4.375 25.2228 4.83594 26.3356 5.65641 27.1561C6.47688 27.9766 7.58968 28.4375 8.75 28.4375H26.25C27.4103 28.4375 28.5231 27.9766 29.3436 27.1561C30.1641 26.3356 30.625 25.2228 30.625 24.0625V13.8622Z" fill="#00FBFB"/>
</svg>
