<svg width="24" height="24" viewBox="0 0 24 24" fill="none" xmlns="http://www.w3.org/2000/svg">
<path d="M4.70553 0.00598145C2.12033 0.00598145 0.00448608 2.12177 0.00448608 4.70703V19.2952C0.00448608 21.8804 2.12028 23.9955 4.70553 23.9955H19.2937C21.8789 23.9955 23.994 21.8804 23.994 19.2952V4.70703C23.994 2.12182 21.8789 0.00598145 19.2937 0.00598145H4.70553ZM5.88792 3.96473C7.12747 3.96473 7.89098 4.77848 7.91455 5.84813C7.91455 6.89417 7.12742 7.73079 5.86394 7.73079H5.84069C4.62473 7.73079 3.8388 6.89422 3.8388 5.84813C3.8388 4.7785 4.64851 3.96473 5.88789 3.96473H5.88792ZM16.5698 8.96417C18.9537 8.96417 20.7408 10.5223 20.7408 13.8706V20.1214H17.1179V14.2897C17.1179 12.8243 16.5936 11.8245 15.2825 11.8245C14.2816 11.8245 13.685 12.4984 13.4231 13.1493C13.3274 13.3822 13.3039 13.7075 13.3039 14.0333V20.1214H9.681C9.681 20.1214 9.72854 10.2427 9.681 9.21982H13.3046V10.7636C13.7861 10.0208 14.6472 8.96415 16.5698 8.96415V8.96417ZM4.05249 9.22061H7.67537V20.1215H4.05249V9.22061V9.22061Z" fill="#00FBFB"/>
</svg>
