<svg width="22" height="25" viewBox="0 0 22 25" fill="none" xmlns="http://www.w3.org/2000/svg">
<g clip-path="url(#clip0_166_8)">
<path d="M21.8775 3.90625V21.0938C21.8775 22.3882 20.8282 23.4375 19.5338 23.4375H2.34625C1.05182 23.4375 0.00250244 22.3882 0.00250244 21.0938V3.90625C0.00250244 2.61182 1.05182 1.5625 2.34625 1.5625H19.5338C20.8282 1.5625 21.8775 2.61182 21.8775 3.90625ZM17.5806 4.6875H12.1133C11.0726 4.6875 10.5469 5.95024 11.2846 6.68804L12.8463 8.2499L3.29913 17.7971C3.07032 18.0259 3.07032 18.3969 3.29913 18.6258L4.81422 20.1409C5.04308 20.3697 5.41407 20.3697 5.64288 20.1409L15.1901 10.5937L16.752 12.1558C17.4858 12.8895 18.7525 12.3743 18.7525 11.3271V5.85938C18.7525 5.21216 18.2278 4.6875 17.5806 4.6875Z" fill="black"/>
</g>
<defs>
<clipPath id="clip0_166_8">
<rect width="21.88" height="25" fill="white"/>
</clipPath>
</defs>
</svg>
