<svg width="80" height="80" viewBox="0 0 80 80" fill="none" xmlns="http://www.w3.org/2000/svg">
<path d="M41.7188 27.5V10.625H18.125V69.375H61.875V30.7812H45C44.1298 30.7812 43.2952 30.4355 42.6798 29.8202C42.0645 29.2048 41.7188 28.3702 41.7188 27.5Z" fill="black" fill-opacity="0.15"/>
<path d="M66.7656 22.5469L49.9531 5.73438C49.4844 5.26563 48.8516 5 48.1875 5H15C13.6172 5 12.5 6.11719 12.5 7.5V72.5C12.5 73.8828 13.6172 75 15 75H65C66.3828 75 67.5 73.8828 67.5 72.5V24.3203C67.5 23.6562 67.2344 23.0156 66.7656 22.5469Z" fill="#00FFB3" fill-opacity="0.75"/>
<path d="M47.0312 10.7656L61.7344 25.4688H47.0312V10.7656Z" fill="#00FFB3" fill-opacity="0.75"/>
<path d="M61.875 69.375H18.125V10.625H41.7188V27.5C41.7188 28.3702 42.0645 29.2048 42.6798 29.8202C43.2952 30.4355 44.1298 30.7812 45 30.7812H61.875V69.375Z" fill="#00FFB3" fill-opacity="0.75"/>
<path d="M35.1875 55.75H32.225C31.923 54.6029 31.923 53.3971 32.225 52.25H35.1875C35.1104 52.8303 35.0687 53.4147 35.0625 54C35.0687 54.5853 35.1104 55.1697 35.1875 55.75Z" fill="black"/>
<path d="M32.95 50.5H35.5C35.7916 49.4203 36.2025 48.3763 36.725 47.3875C35.1304 47.9321 33.7886 49.0385 32.95 50.5ZM45.05 50.5C44.2048 49.0391 42.8595 47.9335 41.2625 47.3875C41.7922 48.3716 42.1994 49.4169 42.475 50.5" fill="black"/>
<path d="M39 60.9625C39.7428 59.907 40.3086 58.7375 40.675 57.5H37.325C37.6915 58.7375 38.2572 59.907 39 60.9625ZM39 47.025C38.2566 48.0846 37.6908 49.2584 37.325 50.5H40.675C40.3092 49.2584 39.7434 48.0846 39 47.025Z" fill="black"/>
<path d="M32.95 57.5C33.7939 58.9571 35.1338 60.0619 36.725 60.6125C36.2025 59.6237 35.7916 58.5797 35.5 57.5" fill="black"/>
<path d="M50.25 45.25V62.75C50.25 63.413 49.9866 64.0489 49.5178 64.5178C49.0489 64.9866 48.413 65.25 47.75 65.25H30.25C29.587 65.25 28.9511 64.9866 28.4822 64.5178C28.0134 64.0489 27.75 63.413 27.75 62.75V45.25C27.75 44.587 28.0134 43.9511 28.4822 43.4822C28.9511 43.0134 29.587 42.75 30.25 42.75H47.75C48.413 42.75 49.0489 43.0134 49.5178 43.4822C49.9866 43.9511 50.25 44.587 50.25 45.25ZM47.75 54C47.75 52.2694 47.2368 50.5777 46.2754 49.1388C45.3139 47.6998 43.9473 46.5783 42.3485 45.9161C40.7496 45.2538 38.9903 45.0805 37.293 45.4181C35.5956 45.7557 34.0365 46.5891 32.8128 47.8128C31.5891 49.0365 30.7557 50.5956 30.4181 52.293C30.0805 53.9903 30.2538 55.7496 30.9161 57.3485C31.5783 58.9473 32.6998 60.3139 34.1388 61.2754C35.5777 62.2368 37.2694 62.75 39 62.75C41.3206 62.75 43.5462 61.8281 45.1872 60.1872C46.8281 58.5462 47.75 56.3206 47.75 54ZM42.9375 54C42.9313 54.5853 42.8896 55.1697 42.8125 55.75H45.775C46.0769 54.6029 46.0769 53.3971 45.775 52.25H42.8125C42.8896 52.8303 42.9313 53.4147 42.9375 54ZM41.2625 60.6125C42.8578 60.0635 44.2022 58.9586 45.05 57.5H42.475C42.1994 58.5831 41.7922 59.6284 41.2625 60.6125ZM36.95 52.25C36.7634 53.4092 36.7634 54.5908 36.95 55.75H41.05C41.1356 55.1705 41.1815 54.5858 41.1875 54C41.1819 53.4142 41.1359 52.8295 41.05 52.25H36.95Z" fill="black"/>
</svg>
